<svg version="1.1" id="Layer_1" xmlns="http://www.w3.org/2000/svg" xmlns:xlink="http://www.w3.org/1999/xlink" x="0px" y="0px"
	 width="100%" viewBox="0 0 1024 1024" enable-background="new 0 0 1024 1024" xml:space="preserve">
<path fill="#000000" opacity="1.000000" stroke="none" 
	d="
M363.244537,516.929565 
	C363.260040,518.419006 363.311157,519.420410 363.273315,520.418396 
	C363.182800,522.805054 364.119598,525.642639 360.721741,526.665894 
	C357.171234,527.735168 353.797516,527.889465 351.179810,524.605469 
	C344.638000,516.398682 337.984161,508.278107 331.583801,499.962463 
	C321.516052,486.881989 312.763550,472.902130 303.253815,457.521393 
	C303.253815,460.335663 303.189728,461.820221 303.263580,463.297913 
	C304.128052,480.594299 304.987488,497.891052 305.903992,515.184692 
	C306.355103,523.696533 302.681854,528.271667 296.071838,527.230896 
	C292.971375,526.742676 291.362885,525.326599 291.983826,521.791077 
	C295.092896,504.087738 293.319916,486.239258 293.319031,468.448517 
	C293.318481,457.620911 292.967621,446.792358 292.691223,435.966370 
	C292.626831,433.445068 293.457123,431.714417 296.000946,431.172058 
	C299.346405,430.458710 302.668732,430.069061 305.065491,433.367279 
	C310.256622,440.510773 315.502777,447.615173 320.624695,454.807983 
	C331.609741,470.234375 343.031067,485.355591 353.701538,502.755920 
	C352.848541,486.711792 352.225403,472.113220 351.222351,457.540802 
	C350.821045,451.710480 350.596771,445.895203 350.714874,440.070129 
	C350.793488,436.193848 352.119141,432.830780 356.139404,431.326324 
	C360.727570,429.609375 363.361298,431.556274 363.351227,436.449799 
	C363.296326,463.113098 363.273529,489.776520 363.244537,516.929565 
z"/>
<path fill="#000000" opacity="1.000000" stroke="none" 
	d="
M831.749573,454.728516 
	C837.348450,455.212830 841.792603,457.249298 845.736145,461.055756 
	C847.515930,452.597534 846.291626,444.468506 845.104553,436.387787 
	C844.219238,430.361267 844.825012,428.923218 850.056519,427.626953 
	C855.337158,426.318512 860.153442,428.561127 861.220642,433.178833 
	C861.849670,435.900574 862.030884,438.781860 862.011047,441.588562 
	C861.861755,462.721252 861.615417,483.853271 861.390747,504.985413 
	C861.365845,507.324066 861.427734,509.629578 862.297302,511.862396 
	C862.970032,513.589783 864.043640,514.754883 865.971741,514.628967 
	C867.923462,514.501465 869.993835,513.671692 870.802551,516.523254 
	C871.610168,519.371033 870.986633,521.787903 868.896179,523.824097 
	C863.946716,528.645264 854.781860,527.662354 850.828918,521.901733 
	C849.108337,519.394287 848.298157,516.504333 847.287537,513.049072 
	C846.156128,514.627808 845.215759,515.861633 844.357544,517.150085 
	C838.737000,525.589172 830.576050,528.304077 820.952209,527.206543 
	C812.458557,526.237854 807.198181,521.089905 804.335938,513.260132 
	C798.940491,498.500397 799.363464,483.755096 805.831970,469.580627 
	C810.645325,459.033051 819.595520,454.166138 831.749573,454.728516 
M834.193848,463.480804 
	C826.197083,463.915985 822.095032,466.935120 819.886292,474.882202 
	C816.667908,486.462219 816.524658,498.180603 819.345398,509.895447 
	C820.346802,514.054504 822.494141,517.300171 826.936157,518.256592 
	C831.472168,519.233276 835.133789,517.365295 837.961670,513.979858 
	C839.433289,512.218140 840.634888,510.149567 841.590820,508.052002 
	C846.373657,497.558044 846.753174,486.442657 845.428772,475.276367 
	C844.716492,469.270660 841.660645,464.609009 834.193848,463.480804 
z"/>
<path fill="#000000" opacity="1.000000" stroke="none" 
	d="
M208.506622,527.002808 
	C202.482147,525.872742 196.933899,524.727417 192.105286,521.482056 
	C189.979858,520.053528 188.356491,518.525574 188.355927,515.513245 
	C188.351196,490.865295 188.194183,466.217407 188.100784,441.569397 
	C188.093216,439.572479 188.080582,437.560181 188.301086,435.580719 
	C189.016998,429.153717 193.200394,426.178986 199.444336,427.544983 
	C204.829391,428.723083 206.114197,430.340851 205.231293,435.835144 
	C203.717468,445.255646 204.110489,454.707703 204.021759,464.156799 
	C204.446899,464.494049 204.872025,464.831299 205.297165,465.168549 
	C206.335220,463.768097 207.196396,462.182434 208.438751,460.995941 
	C220.479553,449.496033 240.216660,453.762665 245.605637,469.483704 
	C250.158890,482.766724 249.907120,496.444641 244.810944,509.613434 
	C240.239227,521.427002 231.087006,527.207458 218.435059,527.346008 
	C215.275131,527.380615 212.112610,527.178650 208.506622,527.002808 
M207.015945,518.575439 
	C219.088150,522.151062 226.026062,519.484680 229.023651,509.375336 
	C232.629044,497.216095 232.956970,484.769318 229.882721,472.437286 
	C227.597427,463.270142 218.115173,461.066528 211.540634,467.925293 
	C208.460739,471.138275 206.757339,475.152130 205.691559,479.359375 
	C202.705383,491.147552 204.289734,503.171967 204.127228,515.104553 
	C204.107269,516.569641 204.994141,517.568298 207.015945,518.575439 
z"/>
<path fill="#000000" opacity="1.000000" stroke="none" 
	d="
M973.370850,511.188080 
	C974.800720,516.218201 978.343506,514.272339 981.158569,514.006897 
	C983.939636,518.867065 983.147339,522.487976 978.870605,525.153076 
	C971.593445,529.687988 962.071167,526.387024 959.284546,518.297974 
	C958.548157,516.160278 958.097107,513.924255 957.356140,511.135284 
	C954.598877,514.916931 952.079407,518.200073 948.900269,520.878967 
	C942.677917,526.122253 935.501587,528.242371 927.510864,526.913818 
	C921.365601,525.892090 916.736206,522.666016 914.705200,516.423218 
	C912.467773,509.545929 914.223022,503.494995 919.021362,498.469025 
	C925.628235,491.548737 934.351196,488.739075 943.459656,486.945343 
	C945.416870,486.559906 947.413818,486.085999 949.385437,486.115967 
	C956.658386,486.226532 957.245728,486.644836 956.660767,477.057922 
	C956.014343,466.463013 951.800415,461.443848 943.727722,461.316772 
	C939.620667,461.252167 935.800842,462.289948 934.039246,466.148621 
	C932.263489,470.038300 932.403259,474.251343 935.045044,478.007629 
	C935.697388,478.935120 936.358704,479.856323 937.194275,481.031219 
	C933.181519,484.837524 928.827454,484.937897 924.266663,483.022156 
	C919.661865,481.087921 916.476013,475.458099 917.065552,470.384521 
	C917.634644,465.487732 919.758850,461.440521 924.332886,459.134491 
	C935.838684,453.333618 947.736938,452.997864 959.623474,457.512787 
	C968.049133,460.713104 971.092834,468.019867 972.347168,476.367340 
	C974.065491,487.802826 972.631531,499.313721 973.370850,511.188080 
M956.392517,498.903137 
	C956.613892,496.957153 957.496826,495.049500 956.627747,492.593903 
	C949.401123,491.527802 942.662292,492.948700 936.500488,497.156677 
	C932.412781,499.948303 930.753906,503.923767 931.043457,508.764954 
	C931.430908,515.244446 936.151428,518.224548 942.181519,515.703430 
	C949.456360,512.661865 953.557251,506.780640 956.392517,498.903137 
z"/>
<path fill="#000000" opacity="1.000000" stroke="none" 
	d="
M519.748230,463.417328 
	C517.817993,457.142822 520.687805,455.915253 525.991760,454.872162 
	C531.482117,453.792389 536.110229,457.195221 536.239502,462.328705 
	C536.461487,471.145416 536.338501,479.971466 536.318420,488.793457 
	C536.303284,495.449005 536.155701,502.111847 537.332642,508.700348 
	C538.170532,513.390503 539.180908,517.992493 544.939514,519.143250 
	C549.622498,520.079102 553.921204,517.938416 556.927856,512.931702 
	C559.988037,507.835785 561.564575,502.228821 561.716064,496.326691 
	C562.023010,484.367157 562.853455,472.369812 560.524719,460.505432 
	C560.073181,458.204651 561.101929,457.092224 562.842163,456.137939 
	C570.452881,451.964294 577.656799,456.462799 577.880554,465.967865 
	C578.186218,478.945038 578.023010,491.933258 578.059692,504.916748 
	C578.063416,506.248413 578.032715,507.580658 578.062927,508.911621 
	C578.199280,514.922363 578.776978,515.443848 584.629028,514.904236 
	C587.336670,519.677551 586.304443,523.981323 581.920837,526.196289 
	C574.442810,529.974792 567.678894,526.138367 563.611267,515.722473 
	C561.928894,516.362732 561.521118,518.113098 560.525452,519.296204 
	C553.545227,527.590515 540.647644,530.210876 530.972534,525.243896 
	C525.217163,522.289307 523.041077,517.022644 521.760071,511.155426 
	C520.395752,504.906311 520.902893,498.561646 520.777405,492.248077 
	C520.589050,482.774078 521.294434,473.268646 519.748230,463.417328 
z"/>
<path fill="#000000" opacity="1.000000" stroke="none" 
	d="
M764.182678,454.707642 
	C779.184875,454.832947 786.869507,462.614349 787.381653,477.338867 
	C787.820923,489.968140 786.562012,502.635956 788.277893,515.233093 
	C788.434692,516.384094 788.403809,517.565552 788.619446,518.702698 
	C789.744812,524.639343 788.582397,526.517639 783.243103,527.252014 
	C777.292664,528.070496 773.112244,525.369934 772.678101,520.213501 
	C772.441406,517.402588 772.625610,514.557861 772.579285,511.729004 
	C772.394043,500.421692 773.158386,489.090820 771.766785,477.813721 
	C771.543701,476.005829 771.247314,474.205475 770.934692,472.410370 
	C770.111450,467.683350 767.622620,464.348511 762.688049,463.637482 
	C757.726196,462.922516 753.949402,465.304230 751.214966,469.219879 
	C746.862183,475.452972 745.401428,482.679260 745.409607,490.059448 
	C745.421387,500.662323 744.113403,511.374786 747.187073,521.819702 
	C747.757507,523.758179 746.770508,524.903564 745.179138,525.881042 
	C738.257446,530.132568 730.491333,526.296082 729.889099,518.140686 
	C729.607849,514.331665 729.789856,510.487640 729.781494,506.659424 
	C729.756592,495.340576 729.749390,484.021729 729.717896,472.702911 
	C729.708374,469.272552 728.876099,466.582123 724.519531,467.559570 
	C722.408630,468.033173 721.876526,466.597443 721.499390,465.112518 
	C720.437378,460.930328 722.233643,457.926147 725.784546,455.977600 
	C731.652649,452.757538 739.000061,455.220612 741.868591,461.297058 
	C742.694824,463.047363 743.226074,464.936890 744.071411,467.252258 
	C748.944641,459.915131 755.070984,455.235199 764.182678,454.707642 
z"/>
<path fill="#000000" opacity="1.000000" stroke="none" 
	d="
M158.169250,524.432495 
	C150.564148,527.914185 142.889664,528.215210 135.287247,526.809021 
	C121.010971,524.168335 112.469490,513.428101 110.879227,496.685394 
	C110.229355,489.843475 110.776039,483.055237 112.708511,476.415558 
	C116.414276,463.683105 126.658241,455.422516 139.623627,454.731995 
	C155.683273,453.876648 167.132324,460.211395 172.212967,473.371704 
	C176.558136,484.626953 176.616943,496.189301 172.734421,507.614349 
	C170.235870,514.966736 165.669388,520.777893 158.169250,524.432495 
M157.659836,503.038788 
	C159.086777,492.394257 159.048782,481.808533 155.554443,471.535187 
	C153.203964,464.624817 148.918243,461.400757 142.955353,461.331512 
	C137.031250,461.262726 132.830292,464.458099 130.265335,471.409668 
	C126.729881,480.991364 126.760124,490.936401 127.839088,500.908508 
	C128.321320,505.365509 129.264923,509.750671 131.490540,513.752441 
	C134.149445,518.533264 138.030350,521.138184 143.646835,520.834900 
	C149.036285,520.543701 152.710876,517.771362 154.692978,512.891785 
	C155.874191,509.983887 156.613785,506.896576 157.659836,503.038788 
z"/>
<path fill="#000000" opacity="1.000000" stroke="none" 
	d="
M439.251251,474.997162 
	C437.849152,486.907318 430.470947,493.788574 417.823608,495.252045 
	C412.373077,495.882751 406.910950,496.570465 401.409973,495.532135 
	C397.563049,494.806030 395.907043,495.850983 396.779205,500.313660 
	C398.350861,508.355377 402.035065,514.755615 410.356995,516.403137 
	C419.123749,518.138733 427.744598,517.434143 433.756683,509.221863 
	C434.323730,508.447266 435.036133,507.779083 435.779205,506.952271 
	C438.928314,508.579407 438.413300,510.993805 437.659363,513.435181 
	C435.336121,520.958130 427.243164,526.377075 417.412994,527.294250 
	C387.568848,530.078857 377.564636,508.272125 379.382599,487.143066 
	C379.567749,484.991028 379.679535,482.810028 380.127014,480.706604 
	C384.917084,458.190491 409.544952,447.290741 429.727875,458.632355 
	C436.025116,462.170990 438.764740,467.647705 439.251251,474.997162 
M399.851349,488.728912 
	C405.221619,489.001282 410.478058,488.453979 415.369019,486.080292 
	C420.647003,483.518768 423.471313,477.353027 422.507629,470.918915 
	C421.780304,466.063293 419.497375,462.479889 414.385040,461.458466 
	C408.748535,460.332336 403.110443,463.366211 400.042694,469.053162 
	C397.385162,473.979675 396.426849,479.331512 396.210968,484.854828 
	C396.133118,486.846802 396.478882,488.557861 399.851349,488.728912 
z"/>
<path fill="#000000" opacity="1.000000" stroke="none" 
	d="
M500.898804,454.748413 
	C504.574982,455.159302 506.880737,456.800201 508.032349,459.939240 
	C508.982086,462.527985 508.929535,464.324951 505.949768,466.023834 
	C496.888336,471.190155 492.871796,480.866058 486.722839,488.638947 
	C485.646790,489.999207 486.475464,491.538055 487.237061,492.850739 
	C490.579834,498.612518 493.820038,504.440796 497.377136,510.068176 
	C499.120880,512.826721 501.348267,515.507935 504.736633,511.488129 
	C506.302124,509.630920 507.718750,510.919952 508.923340,512.157715 
	C512.581543,515.916809 511.455475,522.280884 506.590942,525.497070 
	C501.064423,529.150940 492.830658,527.883423 488.547943,522.569092 
	C484.868378,518.003113 482.512268,512.614502 479.565918,507.591888 
	C478.588593,505.925964 478.183899,503.806885 475.495697,502.476105 
	C471.540863,508.904816 467.522278,515.331116 463.617859,521.826050 
	C461.480835,525.380981 458.719635,527.686035 454.328522,527.325806 
	C450.628296,527.022400 448.132538,525.167114 446.966980,521.591125 
	C445.750641,517.859436 448.829681,517.183655 451.008179,515.830627 
	C456.151062,512.636169 458.548645,507.042816 462.428192,502.772400 
	C469.371124,495.129913 471.115784,487.741547 463.657684,479.423981 
	C461.582397,477.109528 460.422760,473.998871 458.590057,471.434296 
	C457.085876,469.329498 455.028961,468.286896 452.655670,470.362457 
	C448.736206,473.790344 447.253967,470.330292 446.105530,467.732758 
	C444.228607,463.487549 446.738556,458.336456 451.292206,456.086395 
	C457.634399,452.952667 464.963501,454.686188 468.961212,460.653381 
	C471.641205,464.653717 473.791229,469.007080 476.228210,473.173309 
	C477.209686,474.851257 477.722961,476.908234 480.383881,478.181061 
	C484.026581,472.368134 487.734711,466.529694 491.357880,460.638977 
	C493.480957,457.187195 496.090790,454.610840 500.898804,454.748413 
z"/>
<path fill="#000000" opacity="1.000000" stroke="none" 
	d="
M79.613297,470.999878 
	C79.624641,461.174652 79.491325,451.845856 79.718979,442.525909 
	C79.811081,438.755737 78.233025,437.359467 74.762245,437.419312 
	C74.429504,437.425049 74.096237,437.410126 73.763420,437.398804 
	C62.411987,437.013428 60.643196,439.646790 65.580223,449.582764 
	C61.456043,452.792053 56.287048,452.345093 52.869064,448.483582 
	C49.361248,444.520569 49.384106,438.126038 52.911068,434.332306 
	C54.549168,432.570282 56.550858,431.267426 58.875305,430.887299 
	C71.102669,428.887756 83.278404,432.036865 95.284256,430.545441 
	C95.284256,455.821167 95.652359,480.268005 95.144699,504.696655 
	C94.845352,519.101440 85.614365,527.214905 71.248253,527.370972 
	C67.086067,527.416199 62.914803,527.537292 58.871681,526.227905 
	C50.862881,523.634155 46.364826,516.962158 47.688988,509.609558 
	C48.524769,504.968750 51.717583,501.960480 56.053524,501.728516 
	C61.284016,501.448700 63.267212,503.838196 62.015900,508.912445 
	C60.640602,514.489502 62.955124,519.241760 67.660057,520.501221 
	C72.693069,521.848511 77.276627,518.774475 78.472115,512.867737 
	C79.160812,509.464996 79.520035,505.945435 79.566536,502.472290 
	C79.704758,492.149811 79.614609,481.824249 79.613297,470.999878 
z"/>
<path fill="#000000" opacity="1.000000" stroke="none" 
	d="
M594.754883,504.794586 
	C596.196350,503.232574 597.690857,502.533722 599.371460,502.254578 
	C602.270508,501.773010 604.001404,502.390564 604.320618,505.942535 
	C605.457764,518.597412 617.213684,524.807983 628.652832,518.993347 
	C633.121765,516.721741 634.395508,511.303375 631.411377,507.090271 
	C629.828857,504.856018 627.587219,503.431824 625.187622,502.206696 
	C618.963318,499.028839 612.709961,495.903687 606.553833,492.598053 
	C602.525574,490.434998 599.270020,487.355896 597.008911,483.315155 
	C591.644653,473.728668 594.853394,462.554626 604.752747,457.952728 
	C615.602173,452.909119 626.721680,453.406830 637.688660,457.826263 
	C641.637634,459.417603 644.145325,462.437195 644.932678,466.723541 
	C645.944397,472.231506 641.086060,477.080475 635.583069,476.119354 
	C633.564087,475.766724 633.049805,474.492401 632.718384,472.647675 
	C630.969788,462.914917 623.648071,458.768494 614.496155,462.203430 
	C609.177490,464.199646 607.555603,468.895599 610.480957,473.875458 
	C612.333130,477.028595 615.278259,478.908875 618.418945,480.509644 
	C624.203430,483.457947 630.106445,486.185669 635.798096,489.301331 
	C643.395691,493.460419 648.940613,499.232666 648.045898,508.691956 
	C647.240967,517.201538 640.772156,523.878906 631.060730,526.079834 
	C621.688721,528.203857 612.174011,528.478516 602.979248,525.205322 
	C593.354187,521.778931 590.010010,513.449097 594.754883,504.794586 
z"/>
<path fill="#000000" opacity="1.000000" stroke="none" 
	d="
M701.827515,527.294312 
	C694.241943,526.928528 691.767639,524.384277 691.742981,516.971924 
	C691.672180,495.678497 691.643005,474.384705 691.696106,453.091248 
	C691.709412,447.750946 691.677490,442.411469 690.315002,437.245453 
	C689.535706,434.290741 690.692444,432.946411 693.106628,431.813995 
	C701.159180,428.036743 707.816956,432.393311 707.782349,441.470490 
	C707.698669,463.420044 707.578186,485.369629 707.581116,507.319183 
	C707.581604,511.129730 707.956787,514.960022 708.434998,518.746338 
	C709.257629,525.260254 709.066956,525.639465 701.827515,527.294312 
z"/>
<path fill="#000000" opacity="1.000000" stroke="none" 
	d="
M897.895935,526.282593 
	C888.208740,528.917664 884.080261,525.950012 883.991699,516.447388 
	C883.859680,502.290955 883.936401,488.132629 883.824097,473.975891 
	C883.796448,470.493774 883.729797,466.945099 883.051636,463.552795 
	C882.291016,459.747009 881.931824,456.739105 886.645691,455.329407 
	C891.627625,453.839569 896.217346,455.216553 898.324280,459.221954 
	C899.389832,461.247742 899.314575,463.399414 899.317078,465.559509 
	C899.332458,478.550964 899.433655,491.543396 899.303467,504.533447 
	C899.249756,509.891541 899.598267,515.201355 900.687134,520.405762 
	C901.263062,523.158325 900.815186,524.941223 897.895935,526.282593 
z"/>
<path fill="#000000" opacity="1.000000" stroke="none" 
	d="
M126.268379,588.297363 
	C120.723564,592.006531 114.823151,591.370667 109.036095,591.235229 
	C105.679306,591.156616 105.070312,588.570129 105.038780,585.966858 
	C104.916016,575.832275 104.948616,565.695984 104.853462,555.560974 
	C104.829231,552.978394 106.282516,551.908691 108.510406,551.788574 
	C111.491638,551.627869 114.505913,551.511841 117.473099,551.764038 
	C126.938271,552.568237 130.586426,560.367065 125.241745,568.159729 
	C124.789032,568.819763 124.290253,569.448303 123.838737,570.056580 
	C130.528702,576.985718 131.213333,581.737732 126.268379,588.297363 
M119.766991,573.537842 
	C111.623245,571.035706 111.038383,571.468567 111.037437,579.998413 
	C111.037361,580.659241 111.029922,581.320190 111.037354,581.980957 
	C111.101784,587.705322 113.349701,589.282898 118.786819,587.421997 
	C124.497543,585.467590 125.337250,578.648865 119.766991,573.537842 
M119.886772,556.617371 
	C118.322296,555.142883 116.247269,555.102051 114.322357,554.673889 
	C112.579651,554.286377 111.253548,554.843384 111.188286,556.804565 
	C111.083397,559.956299 111.080322,563.116455 111.181435,566.268311 
	C111.249619,568.393799 112.759720,568.926697 114.629066,568.996399 
	C120.702759,569.222717 123.349693,563.848145 119.886772,556.617371 
z"/>
<path fill="#000000" opacity="1.000000" stroke="none" 
	d="
M499.363983,590.216187 
	C495.428497,593.346558 493.300629,591.604065 492.105804,587.921997 
	C489.797272,580.807678 487.637909,573.645020 485.390533,566.510681 
	C484.899567,564.952148 483.750061,563.147705 486.068756,562.294434 
	C488.538696,561.385559 489.765686,563.089172 490.386383,565.193420 
	C492.312714,571.723755 494.177521,578.272217 496.472412,586.220520 
	C498.436676,578.540833 500.120758,572.146851 501.684357,565.723511 
	C502.133179,563.879639 502.339996,562.014954 504.791168,561.919006 
	C507.260010,561.822327 508.375641,563.444214 508.942169,565.492554 
	C510.662018,571.710938 512.299011,577.952209 514.211670,585.093445 
	C517.108398,578.246216 518.457947,571.989014 519.966248,565.779785 
	C520.392883,564.023621 520.552734,561.743958 523.131958,562.200195 
	C525.752808,562.663940 525.949036,564.865417 525.296753,566.918884 
	C522.981873,574.206116 520.544312,581.454712 518.107178,588.702515 
	C517.473389,590.587158 516.154236,591.870544 514.074280,591.850464 
	C511.869720,591.829224 510.962982,590.225952 510.432129,588.346130 
	C508.855957,582.764526 507.282288,577.182312 505.296844,570.144226 
	C503.127625,577.645691 501.357086,583.768433 499.363983,590.216187 
z"/>
<path fill="#000000" opacity="1.000000" stroke="none" 
	d="
M287.445312,591.221680 
	C279.570618,587.478149 277.096832,576.744141 281.614075,567.657715 
	C284.549622,561.752930 292.896973,559.601807 300.016815,562.903076 
	C302.089142,563.864014 303.849274,565.182190 303.863892,567.660461 
	C303.915741,576.456360 305.045441,585.324829 303.161438,594.020325 
	C301.319855,602.520142 290.853394,606.892334 283.407928,602.577942 
	C280.671997,600.992554 279.232208,598.662354 280.102692,595.511108 
	C280.781616,593.053162 282.593414,592.132202 285.089417,592.945190 
	C285.316406,593.271057 285.678467,593.550537 285.657623,593.797668 
	C285.425415,596.550720 284.324524,599.778259 288.396606,600.609375 
	C292.482666,601.443298 295.737946,599.939880 297.123474,595.855347 
	C297.902740,593.558167 297.996918,591.028625 298.588257,587.468872 
	C295.023254,590.865967 291.613403,591.719055 287.445312,591.221680 
M289.862854,565.416870 
	C284.141815,569.775146 285.122742,575.939331 285.699005,581.826355 
	C285.970490,584.599915 286.893799,587.477051 290.633759,587.722717 
	C294.542023,587.979492 296.324860,585.561951 297.465179,582.380188 
	C298.721802,578.873962 298.697693,575.206116 298.634460,571.542786 
	C298.529663,565.470032 296.854675,564.141357 289.862854,565.416870 
z"/>
<path fill="#000000" opacity="1.000000" stroke="none" 
	d="
M222.628906,591.284180 
	C222.601974,590.150391 222.557755,589.356995 222.477478,587.916687 
	C218.248932,591.674927 213.736893,592.713135 209.322220,590.143860 
	C204.416611,587.288818 203.667313,581.995422 203.957001,576.962463 
	C204.772614,562.792358 212.039490,559.251099 224.303848,562.915344 
	C226.897980,563.690369 228.338989,565.559814 228.290924,568.533630 
	C228.172729,575.846741 228.513885,583.177917 228.129364,590.473389 
	C227.544083,601.577576 216.291290,607.939148 207.484512,602.412842 
	C204.969299,600.834534 203.677277,598.674805 204.579681,595.683289 
	C205.306656,593.273376 206.855194,592.105347 209.791214,593.139648 
	C209.967972,596.152588 208.227951,600.358276 213.635574,600.822388 
	C218.435913,601.234375 221.005264,598.668701 222.628906,591.284180 
M215.092041,565.191345 
	C211.647842,565.909180 210.752533,568.715027 210.431427,571.536438 
	C210.057495,574.821899 210.112839,578.178040 210.246201,581.492859 
	C210.366302,584.478455 211.287430,587.206604 214.836945,587.652649 
	C218.343201,588.093140 220.409225,586.199707 221.688446,583.085693 
	C223.204666,579.394653 222.709808,575.541565 222.750793,571.742065 
	C222.818680,565.448975 222.498428,565.197266 215.092041,565.191345 
z"/>
<path fill="#000000" opacity="1.000000" stroke="none" 
	d="
M172.813080,577.997375 
	C173.018661,575.740295 173.045044,573.888184 173.459503,572.127380 
	C175.649292,562.824097 180.435608,560.273987 191.195831,562.648865 
	C192.317474,560.293762 191.573349,557.797180 191.687592,555.373352 
	C191.780273,553.407715 190.465225,550.582153 194.036987,550.527222 
	C197.414612,550.475342 197.308243,553.145691 197.310394,555.530884 
	C197.318329,564.334900 197.294708,573.138977 197.345352,581.942749 
	C197.355408,583.690735 196.815674,585.704346 198.881805,586.838562 
	C200.370026,587.655457 201.423691,588.726807 200.077667,590.361694 
	C198.890350,591.803955 197.086884,592.075623 195.550583,591.209900 
	C194.179504,590.437317 193.129669,589.094666 191.743042,587.824951 
	C191.148727,588.301208 190.536987,588.810181 189.906036,589.294128 
	C182.683426,594.833069 175.452835,592.269226 173.370453,583.375916 
	C172.995880,581.776306 172.989410,580.090454 172.813080,577.997375 
M191.743210,575.417664 
	C191.731705,574.587280 191.795700,573.747742 191.695770,572.928162 
	C191.233719,569.138916 190.530365,565.260132 185.561661,565.452820 
	C181.000854,565.629578 179.512466,569.106934 179.222351,573.013672 
	C178.977646,576.308960 179.091461,579.646240 179.273682,582.952454 
	C179.399109,585.227905 180.337189,587.190857 182.891251,587.713501 
	C185.447693,588.236633 187.444656,587.283447 188.932465,585.188293 
	C190.830505,582.515442 191.345001,579.409790 191.743210,575.417664 
z"/>
<path fill="#000000" opacity="1.000000" stroke="none" 
	d="
M611.500244,554.278015 
	C623.387329,547.854431 633.927734,553.268188 635.262451,566.202881 
	C635.791321,571.328491 635.935608,576.497375 634.404724,581.531128 
	C632.374817,588.205811 627.645081,591.926025 620.956665,592.158813 
	C614.590210,592.380432 609.061218,589.133545 607.270935,582.681824 
	C604.558167,572.905457 603.549744,563.012024 611.500244,554.278015 
M614.115356,585.258057 
	C619.723145,590.855713 626.491089,589.355286 628.510620,581.897461 
	C630.326294,575.192261 630.240356,568.384399 628.456665,561.657715 
	C627.385864,557.619202 625.012024,554.598938 620.540405,554.600220 
	C616.095947,554.601501 613.585388,557.539062 612.581848,561.607178 
	C610.669678,569.358826 610.592285,577.076538 614.115356,585.258057 
z"/>
<path fill="#000000" opacity="1.000000" stroke="none" 
	d="
M648.386719,595.830566 
	C648.454224,596.732849 648.504456,597.229614 648.550842,597.726746 
	C648.760559,599.973450 649.793884,602.907166 646.139160,603.011169 
	C642.910217,603.103088 642.835266,600.259644 642.822998,597.903320 
	C642.777222,589.080933 642.830750,580.257935 642.799438,571.435364 
	C642.793701,569.814026 643.261841,567.912292 641.739868,566.763550 
	C640.224731,565.619995 638.998230,564.543335 640.741821,562.843384 
	C642.277405,561.346252 644.131836,561.570557 645.726685,562.850586 
	C646.737610,563.661926 647.538086,564.735291 648.598999,565.868469 
	C652.262390,561.828430 656.798767,560.204712 661.651428,562.605225 
	C666.572021,565.039307 667.399963,569.981934 667.334412,575.028625 
	C667.295593,578.015747 667.426941,580.994141 666.238770,583.875610 
	C663.138855,591.393921 658.111694,593.351379 648.367737,590.400574 
	C648.367737,592.159546 648.367737,593.792419 648.386719,595.830566 
M660.207214,567.516663 
	C656.136719,564.499634 653.176819,564.829590 650.934998,569.055359 
	C648.729858,573.212158 647.905884,577.751953 648.785583,582.509094 
	C649.346008,585.539856 650.638611,588.071411 653.957764,588.277527 
	C657.331482,588.487061 659.520874,586.390076 660.564941,583.282166 
	C662.246826,578.275696 662.260498,573.225159 660.207214,567.516663 
z"/>
<path fill="#000000" opacity="1.000000" stroke="none" 
	d="
M678.600342,565.571167 
	C681.863281,564.415283 684.027100,561.409485 687.998230,561.605225 
	C692.363525,561.820312 695.305542,563.554138 696.835449,567.597107 
	C698.596008,572.249634 698.812256,576.977356 697.460571,581.797424 
	C694.866211,591.049805 689.082581,593.977295 679.343567,590.195679 
	C679.343567,593.324768 679.355347,596.205505 679.339294,599.086182 
	C679.329346,600.874207 679.797485,603.090088 677.016418,603.147644 
	C674.376038,603.202332 673.742859,601.271606 673.714539,599.080933 
	C673.667297,595.418762 673.683716,591.755676 673.680420,588.093018 
	C673.675293,582.432373 673.698547,576.771545 673.658997,571.111206 
	C673.648804,569.651794 674.078674,567.930054 672.682007,566.915649 
	C671.043457,565.725464 669.451904,564.624878 671.664001,562.742310 
	C673.495117,561.183838 675.412415,561.703186 677.012451,563.302124 
	C677.586304,563.875549 677.942627,564.666565 678.600342,565.571167 
M681.956970,568.558472 
	C679.297729,572.681885 679.029114,577.287354 679.411926,581.963806 
	C679.677673,585.209656 681.171814,587.945068 684.665283,588.234375 
	C687.995300,588.510254 690.346680,586.415466 691.320557,583.296143 
	C692.558594,579.330566 693.199646,575.284912 692.110413,571.082092 
	C690.459717,564.713135 687.529541,563.711182 681.956970,568.558472 
z"/>
<path fill="#000000" opacity="1.000000" stroke="none" 
	d="
M586.483521,580.563538 
	C586.706909,583.346069 586.908447,585.669312 587.113220,587.992310 
	C587.274719,589.825684 586.940063,591.474426 584.775574,591.687988 
	C582.761780,591.886597 581.615417,590.519226 581.429321,588.712952 
	C581.123230,585.742004 581.100281,582.740356 580.997498,579.750305 
	C580.888794,576.588196 580.897095,573.420532 580.720276,570.262817 
	C580.588989,567.918945 579.547241,566.065674 577.094788,565.453064 
	C574.477661,564.799316 572.597534,565.950256 571.157898,568.088074 
	C569.074036,571.182556 569.123474,574.703735 569.101501,578.200073 
	C569.081543,581.364136 569.140015,584.529419 569.206604,587.693176 
	C569.247498,589.641785 569.156311,591.673950 566.610779,591.633118 
	C564.317993,591.596252 563.682678,589.767578 563.675659,587.743286 
	C563.652100,580.913757 563.639893,574.084167 563.628906,567.254639 
	C563.621948,562.923645 563.624878,558.592712 563.623657,554.261719 
	C563.623108,552.243591 564.113037,550.460693 566.536560,550.448914 
	C569.067871,550.436584 569.297058,552.286072 569.263855,554.291748 
	C569.209656,557.570618 569.249207,560.851135 569.249207,564.510437 
	C570.993103,563.611450 572.245789,562.794739 573.613525,562.289795 
	C579.959351,559.946960 585.615173,563.395142 586.247742,570.115845 
	C586.558960,573.422729 586.405884,576.773376 586.483521,580.563538 
z"/>
<path fill="#000000" opacity="1.000000" stroke="none" 
	d="
M353.571930,578.642456 
	C357.068024,576.070312 360.681702,574.894409 364.576569,574.708618 
	C367.365479,574.575623 369.081360,573.826111 368.437988,570.530640 
	C367.665100,566.571777 364.635895,564.081970 361.083862,564.766174 
	C358.141479,565.332947 356.672852,566.970459 357.515869,570.091309 
	C357.766388,571.018799 358.117584,571.919189 358.442230,572.890564 
	C356.040619,574.993347 354.235535,574.015442 352.856628,572.113037 
	C350.935486,569.462524 351.311462,566.708069 353.443359,564.360413 
	C358.520660,558.769287 370.953217,561.613342 373.352448,568.788757 
	C374.604767,572.533997 374.228851,576.357849 374.240356,580.163086 
	C374.250458,583.492310 373.770996,586.949768 378.037292,587.959778 
	C377.852295,590.885681 376.081970,591.831909 373.982300,591.832947 
	C370.573883,591.834656 369.546173,588.910095 368.508026,586.193542 
	C362.028381,592.349426 356.397369,593.613770 352.517883,590.008545 
	C349.667877,587.360046 349.947906,583.150757 353.571930,578.642456 
M362.609131,578.194519 
	C361.244080,578.781921 359.718079,579.149475 358.549530,580.005188 
	C356.488251,581.514587 355.460571,583.651672 357.029297,586.044983 
	C358.561493,588.382629 360.769470,587.895508 362.719757,586.612732 
	C365.802521,584.585144 368.285309,582.106873 367.959534,578.092590 
	C366.177979,576.995300 364.760956,577.843811 362.609131,578.194519 
z"/>
<path fill="#000000" opacity="1.000000" stroke="none" 
	d="
M265.834045,566.298096 
	C260.275787,564.970337 257.272125,567.068970 256.359344,572.792786 
	C255.596603,577.575806 255.917221,582.414917 256.157684,587.233459 
	C256.260651,589.296631 256.379303,591.636597 253.601181,591.723267 
	C251.092880,591.801453 250.319473,589.602783 250.251175,587.531799 
	C250.075851,582.216431 250.140869,576.893494 250.048920,571.574707 
	C250.020645,569.939697 250.400635,568.016846 249.024750,566.850525 
	C247.401306,565.474243 246.166565,564.169312 248.296753,562.519348 
	C250.074661,561.142151 252.093506,561.493225 253.728622,563.057983 
	C254.436096,563.735046 254.941132,564.623596 255.561539,565.447144 
	C257.100800,565.379456 257.528687,563.839294 258.608887,563.156128 
	C264.890778,559.182861 272.439453,562.543762 273.212402,569.880066 
	C273.872986,576.150085 272.845306,582.506836 274.055054,588.778870 
	C274.397919,590.556519 273.214111,591.713989 271.490112,591.743103 
	C269.522919,591.776489 268.348541,590.309265 268.246277,588.560242 
	C267.984680,584.086365 268.068359,579.593384 267.918488,575.111267 
	C267.819916,572.164185 268.340637,569.057617 265.834045,566.298096 
z"/>
<path fill="#000000" opacity="1.000000" stroke="none" 
	d="
M777.742188,585.804138 
	C776.064514,578.667664 777.221802,571.816528 776.789978,565.031250 
	C776.682739,563.345886 777.279358,562.003357 779.217773,561.970093 
	C781.317078,561.934204 782.199890,563.384766 782.256104,565.196777 
	C782.395081,569.681824 782.282043,574.174744 782.424500,578.659607 
	C782.548035,582.546021 781.700012,587.163452 787.018188,588.419495 
	C790.303833,589.195618 792.974609,585.580017 794.113770,579.665466 
	C794.976440,575.186462 794.560547,570.733887 794.146301,566.257507 
	C793.982178,564.483765 793.644531,562.270142 796.270264,561.982849 
	C798.936584,561.691223 799.738708,563.753479 799.818604,565.835266 
	C800.022278,571.148438 799.965210,576.471130 800.071655,581.788818 
	C800.107422,583.574951 799.736206,585.567566 801.511597,586.826111 
	C802.935608,587.835510 803.753784,589.005188 802.445801,590.511169 
	C801.064392,592.101868 799.197754,592.254944 797.493469,591.110718 
	C796.434387,590.399658 795.670349,589.249207 794.800171,588.323914 
	C786.234802,594.037109 781.804993,593.449341 777.742188,585.804138 
z"/>
<path fill="#000000" opacity="1.000000" stroke="none" 
	d="
M826.468262,569.943726 
	C825.532288,567.211304 824.326782,565.262756 821.458252,565.385559 
	C818.336243,565.519226 816.701294,567.659363 815.695557,570.221252 
	C813.557251,575.668457 814.241760,581.387024 814.496460,587.028137 
	C814.588318,589.062134 815.285339,591.433411 812.357056,591.626770 
	C809.490112,591.816040 808.905884,589.426819 808.864075,587.142700 
	C808.766541,581.812500 808.825562,576.479614 808.765442,571.148499 
	C808.747070,569.529175 809.170410,567.655396 807.485168,566.580383 
	C805.968018,565.612549 805.172546,564.398438 806.358948,562.929443 
	C807.703674,561.264587 809.664246,561.432617 811.347290,562.442871 
	C812.432983,563.094604 813.257324,564.181702 814.300598,565.170105 
	C815.187561,564.531372 815.951538,563.903198 816.787109,563.391907 
	C823.759155,559.125061 831.126953,562.326050 831.981934,570.401367 
	C832.628357,576.507141 832.325378,582.712280 832.475830,588.872437 
	C832.521423,590.739868 831.589966,591.788025 829.819153,591.720032 
	C827.811462,591.642944 826.909668,590.150513 826.846375,588.333191 
	C826.718750,584.671997 826.778687,581.004639 826.731995,577.340149 
	C826.702271,575.009033 826.619751,572.678528 826.468262,569.943726 
z"/>
<path fill="#000000" opacity="1.000000" stroke="none" 
	d="
M425.749664,576.064758 
	C425.166382,572.197144 427.082642,568.488403 423.416565,565.452759 
	C421.616943,563.962585 423.513000,562.203491 425.621460,561.816711 
	C428.193909,561.344849 429.445831,563.335938 431.046478,565.060425 
	C432.449127,564.214539 433.775452,563.247742 435.234436,562.564087 
	C441.123016,559.804688 446.890259,562.341553 448.492157,568.631836 
	C450.236298,575.480896 448.763763,582.546326 449.425140,589.492310 
	C449.579529,591.113953 448.211884,591.864502 446.732056,591.686096 
	C444.815094,591.454895 443.832062,590.083496 443.790100,588.226135 
	C443.688782,583.738403 443.788574,579.245117 443.637329,574.759766 
	C443.511139,571.017883 444.124268,566.648438 439.058136,565.481384 
	C435.613220,564.687805 432.383698,568.155090 431.689148,573.889160 
	C431.153381,578.312317 431.346161,582.845032 431.491608,587.320068 
	C431.560822,589.450500 431.979584,591.654480 429.079651,591.691101 
	C426.604706,591.722473 425.812225,589.724670 425.780975,587.524902 
	C425.728973,583.867249 425.756042,580.208496 425.749664,576.064758 
z"/>
<path fill="#000000" opacity="1.000000" stroke="none" 
	d="
M419.237610,570.758301 
	C417.564575,578.026001 412.059875,578.633667 406.432953,579.131042 
	C404.747772,579.280029 402.338745,578.256714 401.702393,580.642029 
	C401.157196,582.685730 402.596252,584.528442 404.094452,585.838257 
	C407.239685,588.587952 410.807770,588.277527 414.317444,586.587891 
	C415.603760,585.968567 416.701904,584.958496 418.232056,583.883484 
	C419.528107,587.461731 417.556763,589.109436 415.298218,590.429932 
	C408.144836,594.612244 398.807220,591.129761 396.071899,583.302734 
	C394.018524,577.427185 394.718719,571.808411 398.093536,566.623962 
	C400.925293,562.273865 406.390778,560.465393 412.328369,561.932739 
	C416.603912,562.989319 419.407654,565.521057 419.237610,570.758301 
M407.820648,564.640442 
	C404.299530,565.666687 402.161255,568.031128 401.443695,571.570923 
	C401.157196,572.984314 400.942383,574.569214 402.713348,575.459778 
	C405.598206,576.910461 411.918182,574.687073 413.044739,571.585632 
	C414.561066,567.411133 412.441498,565.346436 407.820648,564.640442 
z"/>
<path fill="#000000" opacity="1.000000" stroke="none" 
	d="
M907.539185,588.608887 
	C901.255005,593.156494 894.583740,593.238708 889.841248,589.109497 
	C884.812195,584.730896 883.554993,575.056335 887.129456,568.242615 
	C890.048157,562.679077 895.757568,560.268860 902.477905,561.953674 
	C906.140503,562.871887 908.815491,564.991272 909.167236,569.061218 
	C909.527100,573.225708 907.582336,575.993958 903.797546,577.707031 
	C900.055664,579.400635 895.940186,578.676147 891.962036,579.566223 
	C891.157837,582.988464 892.742065,585.353027 895.269897,586.732117 
	C899.988281,589.306335 904.171570,587.254028 907.823792,584.129883 
	C909.709656,585.867188 908.399536,587.068359 907.539185,588.608887 
M893.118042,567.757996 
	C891.639526,570.320435 889.399963,573.581543 893.039001,575.327942 
	C896.119446,576.806396 900.035828,575.836792 902.419128,572.663269 
	C904.065369,570.471252 904.362122,567.887207 901.984985,565.978149 
	C898.906799,563.505859 896.102966,564.793152 893.118042,567.757996 
z"/>
<path fill="#000000" opacity="1.000000" stroke="none" 
	d="
M720.784424,562.669800 
	C728.377686,566.808167 728.932434,573.543335 728.015747,580.539734 
	C727.305054,585.963013 724.540771,590.153076 718.761169,591.651184 
	C712.591919,593.250244 706.969482,590.953430 704.072510,585.306702 
	C700.946472,579.213318 701.357300,573.045349 704.626282,567.190857 
	C707.536560,561.978882 712.822754,560.577820 720.784424,562.669800 
M712.121460,565.725464 
	C706.357483,570.893555 707.758362,577.394592 709.011230,583.711487 
	C709.594727,586.653320 711.641052,588.644714 714.973511,588.721069 
	C718.539551,588.802734 720.450745,586.642639 721.486511,583.627686 
	C722.914551,579.470825 723.112366,575.226868 721.882324,570.934814 
	C720.413025,565.807861 718.195190,564.418884 712.121460,565.725464 
z"/>
<path fill="#000000" opacity="1.000000" stroke="none" 
	d="
M929.285461,562.082886 
	C931.281067,562.798767 932.857117,563.510254 933.645508,565.067627 
	C934.506958,566.769348 934.936768,568.753845 932.834595,569.831238 
	C930.959778,570.792114 930.242371,569.260803 929.701782,567.736084 
	C928.757324,565.072083 926.472290,564.456482 924.079895,564.611267 
	C922.320679,564.725037 920.279968,565.094788 919.598938,567.163696 
	C918.915100,569.241211 920.148499,570.817139 921.749878,571.767395 
	C924.452515,573.371216 927.375732,574.597961 930.141174,576.102722 
	C933.561218,577.963684 936.043152,580.463135 935.363037,584.821472 
	C934.692261,589.119812 931.665344,590.803589 927.856079,591.711670 
	C923.978943,592.636047 920.259094,592.254211 916.716919,590.480103 
	C914.656433,589.448059 913.393616,587.675354 913.134766,585.392700 
	C912.958557,583.838745 913.432251,582.308777 915.124634,581.784119 
	C917.020752,581.196167 917.243164,582.748535 917.628845,584.035706 
	C919.070312,588.846558 922.701111,589.252380 926.786072,588.390686 
	C928.436951,588.042358 929.972656,587.096313 930.238647,585.207703 
	C930.481445,583.483704 929.196716,582.425720 927.916626,581.667297 
	C925.921631,580.485291 923.811401,579.493591 921.728149,578.465576 
	C915.827454,575.553772 913.420349,571.858826 914.568420,567.420532 
	C915.661255,563.196106 918.954468,561.522522 925.900391,561.696777 
	C926.893372,561.721619 927.883423,561.863464 929.285461,562.082886 
z"/>
<path fill="#000000" opacity="1.000000" stroke="none" 
	d="
M338.786530,555.920166 
	C336.070831,555.833374 336.344849,557.621460 336.347778,559.046021 
	C336.366943,568.371948 336.377686,577.699097 336.561188,587.022461 
	C336.601074,589.049316 337.453949,591.392456 334.526642,591.657532 
	C331.688202,591.914490 330.955994,589.593689 330.899628,587.288452 
	C330.781555,582.460571 330.820221,577.628601 330.811127,572.798340 
	C330.800812,567.338806 330.808716,561.879211 330.808716,556.346985 
	C327.940369,555.537720 325.708984,556.351746 323.485413,556.720703 
	C321.794098,557.001343 320.366241,556.825012 319.984436,554.951111 
	C319.493927,552.543762 321.350891,552.100281 323.049347,552.077576 
	C330.209198,551.981628 337.371094,551.986816 344.531677,552.038818 
	C346.147461,552.050537 347.577393,552.656128 347.312195,554.709900 
	C347.067749,556.602539 345.837585,557.144104 344.070007,556.817322 
	C342.434235,556.515015 340.790070,556.258240 338.786530,555.920166 
z"/>
<path fill="#000000" opacity="1.000000" stroke="none" 
	d="
M889.348877,447.247192 
	C884.122192,445.799225 881.624512,442.428833 881.856750,437.590546 
	C882.068359,433.180511 884.717590,430.147308 889.120422,429.142181 
	C893.343079,428.178192 896.660767,429.887756 898.981934,433.402405 
	C900.881470,436.278748 900.862610,439.413391 899.334473,442.435608 
	C897.361633,446.337250 893.958435,447.650543 889.348877,447.247192 
z"/>
<path fill="#000000" opacity="1.000000" stroke="none" 
	d="
M385.765656,591.341736 
	C382.643982,589.479004 382.114288,586.657288 382.080597,583.811829 
	C381.968445,574.350464 382.011047,564.887146 382.017975,555.424622 
	C382.019073,553.920105 382.131104,552.362183 383.272552,551.241516 
	C384.168060,550.362305 385.360931,550.318115 386.535858,550.737793 
	C388.424347,551.412354 388.274017,553.044006 388.089142,554.492676 
	C386.947113,563.441345 388.075104,572.397156 387.940887,581.347351 
	C387.914368,583.114685 387.495453,585.133240 389.266113,586.394653 
	C390.482574,587.261292 392.995697,587.252869 391.706787,589.679199 
	C390.540253,591.875183 388.455627,592.323975 385.765656,591.341736 
z"/>
<path fill="#000000" opacity="1.000000" stroke="none" 
	d="
M758.217773,566.017700 
	C757.175049,565.317200 755.300354,565.291321 755.771851,564.304810 
	C757.190430,561.336731 758.942383,558.480164 760.925903,555.853149 
	C761.730591,554.787537 764.316162,555.145142 764.342896,556.209229 
	C764.457092,560.761169 767.937744,562.010864 771.191895,563.313354 
	C770.790039,564.152100 770.651978,564.686340 770.517517,564.685425 
	C764.322571,564.645203 764.143555,568.776978 764.409851,573.322937 
	C764.555298,575.805847 764.610413,578.306030 764.499207,580.789185 
	C764.323120,584.722412 764.029724,588.605103 770.017334,587.308655 
	C770.186584,591.068359 767.870300,591.807495 765.555908,591.926147 
	C762.851501,592.064819 760.828125,590.600220 759.805603,587.989197 
	C758.617371,584.955078 759.069824,581.765503 758.917969,578.628662 
	C758.718262,574.503662 759.462280,570.343811 758.217773,566.017700 
z"/>
<path fill="#000000" opacity="1.000000" stroke="none" 
	d="
M854.488159,566.602234 
	C853.666077,565.148254 851.575623,565.809692 851.391968,563.658569 
	C852.589905,562.145508 855.080322,561.291992 854.977661,558.426819 
	C854.904541,556.388306 856.294495,554.948914 858.580017,555.296265 
	C861.100525,555.679321 861.116150,557.484863 860.661011,559.481262 
	C860.558533,559.930786 860.737000,560.444336 860.775391,560.822327 
	C862.382690,562.909424 865.677551,560.800781 866.888672,563.510803 
	C866.816162,563.844849 866.760315,564.432983 866.677551,564.436829 
	C859.293640,564.777954 860.063843,569.997131 860.310303,574.955566 
	C860.409302,576.948547 860.367004,578.951416 860.320984,580.948181 
	C860.234375,584.700989 859.956726,588.565491 865.905457,587.051697 
	C866.158081,590.812988 863.900574,591.634521 861.618958,591.875854 
	C858.640930,592.190918 856.545898,590.585571 855.463135,587.799194 
	C854.275940,584.744141 854.919739,581.537354 854.816589,578.397217 
	C854.691040,574.573792 854.684143,570.746338 854.488159,566.602234 
z"/>
<path fill="#000000" opacity="1.000000" stroke="none" 
	d="
M551.292480,558.087830 
	C550.536255,563.543823 556.838318,560.427185 557.534302,563.625000 
	C557.287476,565.141418 556.242432,565.358032 555.255249,565.325500 
	C551.750183,565.210144 551.177429,567.289246 551.271667,570.176697 
	C551.390991,573.833374 551.415222,577.501404 551.269714,581.156128 
	C551.119446,584.931091 551.089294,588.408508 556.638794,587.350525 
	C556.744446,591.355530 554.099121,591.917542 551.710388,591.865234 
	C548.326721,591.791138 546.013428,589.719177 545.817871,586.254333 
	C545.546326,581.443420 545.596497,576.607361 545.685852,571.785400 
	C545.745117,568.585510 546.018555,565.435913 541.259277,564.457275 
	C543.949219,562.217712 545.365906,560.239441 546.201233,557.390503 
	C547.075989,554.406982 549.744263,554.038025 551.292480,558.087830 
z"/>
<path fill="#000000" opacity="1.000000" stroke="none" 
	d="
M467.689087,565.296265 
	C464.282166,565.191528 463.198639,566.713379 463.298462,569.631287 
	C463.429382,573.456848 463.279816,577.291077 463.322662,581.120789 
	C463.361664,584.606384 462.197754,589.088440 468.624969,587.028015 
	C468.764801,591.360535 466.165344,591.951660 463.728851,591.896057 
	C460.257446,591.816956 458.150818,589.504578 457.901947,586.160767 
	C457.569061,581.687439 457.673248,577.176514 457.704803,572.682556 
	C457.728821,569.260803 458.320435,565.673889 453.217987,564.372314 
	C455.970978,562.228577 458.037933,560.497253 458.083160,557.312805 
	C458.103088,555.912415 459.622742,555.168152 461.101349,555.312927 
	C462.598450,555.459473 463.719788,556.327332 463.447723,557.942200 
	C462.894257,561.227722 464.718353,561.800781 467.401306,562.155823 
	C469.524628,562.436707 470.338867,563.673950 467.689087,565.296265 
z"/>
<path fill="#000000" opacity="1.000000" stroke="none" 
	d="
M747.925903,569.136597 
	C747.893433,567.162720 747.726562,565.537842 745.710083,565.469482 
	C743.522217,565.395325 742.454468,567.063843 741.831177,568.817261 
	C740.009338,573.942383 740.469238,579.302795 740.244690,584.614563 
	C740.146729,586.930847 742.982666,591.208496 738.176025,591.306702 
	C733.837952,591.395386 734.972961,587.052551 734.863892,584.278503 
	C734.687439,579.790588 734.840942,575.290405 734.800049,570.795959 
	C734.786743,569.330872 735.105835,567.627014 733.674622,566.650513 
	C732.060059,565.548889 731.047546,564.342346 732.631226,562.671814 
	C733.925903,561.306091 735.695984,561.521606 737.261597,562.327820 
	C738.268127,562.846191 739.137878,563.630371 740.244263,564.420654 
	C742.585022,562.757629 744.959656,561.237061 748.016724,561.771240 
	C752.059326,562.477600 754.546387,566.621948 752.807190,569.950745 
	C752.168457,571.173218 751.221436,572.145508 749.684265,572.046570 
	C748.120117,571.945984 747.949829,570.768372 747.925903,569.136597 
z"/>
<path fill="#000000" opacity="1.000000" stroke="none" 
	d="
M151.090134,571.986389 
	C150.494904,571.595886 150.227982,571.360596 150.113892,571.066040 
	C149.364700,569.132141 151.025436,565.613037 147.427246,565.608154 
	C144.163361,565.603699 143.450089,568.736511 142.903763,571.359680 
	C141.771881,576.794495 142.487305,582.304993 142.481781,587.782959 
	C142.480026,589.521606 142.703018,591.343323 140.375488,591.553650 
	C138.064194,591.762512 136.997375,590.151367 136.935471,588.146301 
	C136.766113,582.658691 136.825180,577.164429 136.735519,571.673767 
	C136.709000,570.049744 137.240295,568.143982 135.791565,566.954468 
	C134.284058,565.716614 132.518234,564.622131 134.501328,562.683533 
	C136.154831,561.067017 138.191879,561.533752 139.960617,562.830322 
	C140.621750,563.314941 141.161575,563.965088 141.764252,564.547058 
	C147.723755,560.764709 152.862808,560.781067 154.613434,564.920532 
	C155.933319,568.041443 156.037125,571.247742 151.090134,571.986389 
z"/>
<path fill="#000000" opacity="1.000000" stroke="none" 
	d="
M160.963226,576.978333 
	C160.919281,572.828430 160.882492,569.172485 160.832047,565.516724 
	C160.807541,563.741943 160.991653,562.046387 163.257217,561.905579 
	C165.754395,561.750366 166.246918,563.471985 166.332138,565.486694 
	C166.661697,573.277893 165.800659,581.103638 167.061996,588.872131 
	C167.308426,590.389954 166.457962,591.501404 164.911819,591.702271 
	C162.879868,591.966248 161.639465,590.696106 161.477722,588.897888 
	C161.136520,585.104675 161.116531,581.282593 160.963226,576.978333 
z"/>
<path fill="#000000" opacity="1.000000" stroke="none" 
	d="
M535.912231,563.544800 
	C536.837769,572.223938 535.646484,580.538879 536.797791,588.787109 
	C536.982544,590.110840 536.481934,591.079590 535.220398,591.535461 
	C533.745972,592.068176 532.483582,591.499329 531.866333,590.207825 
	C531.313660,589.051453 530.984375,587.680603 530.960571,586.396912 
	C530.831604,579.435120 530.747559,572.470276 530.813354,565.507996 
	C530.848999,561.729187 532.462280,560.550415 535.912231,563.544800 
z"/>
<path fill="#000000" opacity="1.000000" stroke="none" 
	d="
M873.320312,565.850708 
	C872.928162,563.534058 873.334595,562.027283 875.553528,561.859375 
	C877.663330,561.699768 878.738586,563.230652 878.791077,564.934082 
	C879.042114,573.068237 879.103516,581.208984 879.164124,589.347839 
	C879.176086,590.957336 878.032410,591.813965 876.540161,591.698914 
	C874.851379,591.568787 873.818542,590.426758 873.781677,588.701538 
	C873.692932,584.547180 873.722961,580.390564 873.658875,576.235535 
	C873.607666,572.914185 873.488342,569.593933 873.320312,565.850708 
z"/>
<path fill="#000000" opacity="1.000000" stroke="none" 
	d="
M235.939178,569.111877 
	C236.434128,566.318909 234.099869,562.401001 238.095917,562.099854 
	C242.437485,561.772583 241.136292,565.905212 241.294296,568.447266 
	C241.704758,575.050659 240.708557,581.701782 241.916885,588.284790 
	C242.231384,589.998169 241.734207,591.328064 239.921661,591.669617 
	C237.856781,592.058655 236.655457,590.716492 236.490921,588.947021 
	C236.139297,585.165527 236.089462,581.353577 235.985367,577.552185 
	C235.912781,574.901611 235.955429,572.247925 235.939178,569.111877 
z"/>
<path fill="#000000" opacity="1.000000" stroke="none" 
	d="
M840.656860,574.080017 
	C840.613281,570.944275 840.639526,568.290955 840.503601,565.646057 
	C840.416443,563.949951 839.993225,562.143311 842.425964,561.874817 
	C844.758728,561.617310 845.836182,563.196838 845.979187,565.149658 
	C846.232727,568.612854 846.174927,572.100037 846.209900,575.577576 
	C846.251587,579.719604 846.253967,583.862122 846.272949,588.004395 
	C846.281067,589.774170 846.002441,591.559875 843.844788,591.654419 
	C841.510437,591.756653 840.783264,589.968994 840.744568,587.986389 
	C840.657288,583.514099 840.680054,579.039612 840.656860,574.080017 
z"/>
<path fill="#000000" opacity="1.000000" stroke="none" 
	d="
M160.525787,554.368408 
	C161.374283,551.558655 163.119812,551.105103 165.272690,552.027771 
	C166.602432,552.597595 167.224411,553.849365 166.994293,555.299988 
	C166.770737,556.709167 165.924133,557.848511 164.475418,558.039490 
	C162.069534,558.356689 160.746414,557.106750 160.525787,554.368408 
z"/>
<path fill="#000000" opacity="1.000000" stroke="none" 
	d="
M240.463638,552.204834 
	C242.493927,554.304138 242.166260,556.045593 240.314545,557.559265 
	C239.324509,558.368469 238.103989,558.411560 237.046051,557.730652 
	C235.646408,556.829773 235.049103,555.424011 235.615646,553.835083 
	C236.394989,551.649231 238.151978,551.465515 240.463638,552.204834 
z"/>
<path fill="#000000" opacity="1.000000" stroke="none" 
	d="
M536.312378,556.280396 
	C534.711914,558.250183 533.116821,558.691772 531.409485,557.157288 
	C530.361938,556.215881 529.911377,554.974365 530.572937,553.575745 
	C531.317627,552.001221 532.673950,551.402710 534.259521,551.824585 
	C536.324036,552.373901 537.254089,553.762512 536.312378,556.280396 
z"/>
<path fill="#000000" opacity="1.000000" stroke="none" 
	d="
M842.201050,557.973083 
	C840.000732,556.761230 839.272095,555.208435 840.233154,553.254272 
	C841.015320,551.663574 842.569092,551.495422 844.099243,551.888306 
	C845.552551,552.261475 846.279541,553.362671 846.182007,554.862061 
	C846.039185,557.056030 844.784790,558.104980 842.201050,557.973083 
z"/>
<path fill="#000000" opacity="1.000000" stroke="none" 
	d="
M878.787842,553.280762 
	C879.455139,555.681458 878.937988,557.298279 876.823547,557.955261 
	C875.162781,558.471130 873.935608,557.623962 873.163391,556.188782 
	C872.575623,555.096619 872.567078,553.845642 873.417114,552.944519 
	C875.052612,551.210510 876.849670,551.259888 878.787842,553.280762 
z"/>
</svg>