<?xml version="1.0" standalone="no"?>
<!DOCTYPE svg PUBLIC "-//W3C//DTD SVG 20010904//EN"
 "http://www.w3.org/TR/2001/REC-SVG-20010904/DTD/svg10.dtd">
<svg version="1.0" xmlns="http://www.w3.org/2000/svg"
 width="1080.000000pt" height="1080.000000pt" viewBox="0 0 1080.000000 1080.000000"
 preserveAspectRatio="xMidYMid meet">
<metadata>
Created by potrace 1.14, written by Peter Selinger 2001-2017
</metadata>
<g transform="translate(0.000000,1080.000000) scale(0.100000,-0.100000)"
fill="#000000" stroke="none">
<path d="M2023 6290 c-12 -5 -27 -18 -32 -29 -8 -14 -10 -164 -9 -473 l3 -453
52 -28 c112 -60 277 -71 382 -26 64 27 123 92 153 168 20 50 23 74 23 211 0
141 -2 160 -23 205 -47 103 -131 153 -238 142 -74 -8 -132 -42 -173 -102 l-34
-50 7 165 c3 91 10 182 15 203 9 36 8 39 -22 58 -34 20 -68 23 -104 9z m356
-384 c73 -57 82 -382 13 -514 -27 -52 -74 -74 -148 -70 -36 2 -72 11 -88 21
-26 17 -26 18 -26 150 0 72 5 163 10 201 12 80 53 170 91 199 46 34 114 40
148 13z"/>
<path d="M8926 6284 c-24 -14 -27 -20 -22 -47 4 -18 9 -96 13 -175 l6 -143
-35 35 c-106 106 -318 55 -392 -93 -83 -166 -66 -441 32 -544 57 -60 143 -80
234 -53 60 17 127 78 153 139 l13 32 7 -40 c16 -86 62 -135 127 -135 77 0 119
43 104 105 -5 21 -10 24 -26 15 -25 -13 -49 -3 -61 27 -5 13 -9 207 -9 433 0
374 -1 410 -18 430 -23 28 -87 36 -126 14z m-90 -369 c117 -49 106 -414 -16
-537 -33 -33 -44 -38 -85 -38 -62 0 -98 34 -114 108 -14 68 -14 245 0 314 28
136 113 196 215 153z"/>
<path d="M9337 6269 c-11 -6 -25 -26 -33 -45 -40 -95 84 -172 150 -93 35 41
34 83 -3 120 -31 31 -79 38 -114 18z"/>
<path d="M605 6256 c-54 -20 -75 -49 -75 -102 0 -63 33 -99 93 -99 54 0 66 9
45 32 -26 30 -31 62 -14 88 15 23 22 25 99 25 l82 0 -3 -382 c-2 -409 -7 -455
-50 -488 -73 -58 -170 18 -144 114 14 52 3 66 -53 66 -57 0 -85 -32 -85 -99 0
-104 73 -155 225 -156 83 0 95 3 145 31 45 26 60 42 85 89 l30 59 5 413 5 413
-116 0 c-64 0 -143 2 -175 5 -39 4 -73 0 -99 -9z"/>
<path d="M3095 6252 c-6 -4 -10 -165 -10 -447 0 -242 -4 -461 -8 -488 -8 -45
-7 -47 20 -58 35 -14 70 -2 95 32 19 25 19 32 4 342 -9 174 -16 331 -16 348 0
28 8 18 65 -75 151 -249 445 -641 489 -651 11 -3 34 -2 49 3 l28 7 2 493 2
493 -22 6 c-42 10 -73 -5 -90 -44 -13 -33 -13 -70 5 -377 11 -188 19 -342 17
-344 -1 -1 -19 26 -40 60 -21 35 -142 208 -268 386 l-230 322 -41 0 c-23 0
-45 -4 -51 -8z"/>
<path d="M7292 6247 c-18 -8 -22 -15 -16 -31 4 -12 10 -223 13 -469 l6 -449
28 -24 c33 -28 66 -30 114 -8 26 13 32 21 26 33 -4 9 -10 220 -13 469 l-5 454
-24 19 c-26 21 -91 25 -129 6z"/>
<path d="M1407 6000 c-91 -23 -170 -90 -208 -175 -32 -72 -44 -183 -31 -271
15 -96 39 -150 91 -207 131 -142 403 -121 509 38 47 70 65 155 60 271 -11 222
-114 340 -305 350 -43 2 -95 -1 -116 -6z m164 -73 c74 -49 112 -209 90 -389
-17 -147 -74 -228 -158 -228 -117 0 -173 104 -173 320 0 162 35 270 98 304 41
23 103 20 143 -7z"/>
<path d="M4230 5994 c-72 -19 -127 -58 -168 -118 -50 -75 -65 -140 -61 -270 4
-102 7 -117 37 -178 18 -37 47 -79 65 -94 146 -124 418 -102 486 40 23 47 25
55 12 75 -7 10 -17 4 -46 -28 -26 -29 -52 -45 -88 -56 -159 -47 -276 23 -302
182 l-6 41 138 4 c117 3 145 7 188 26 92 42 128 94 128 182 0 62 -11 90 -56
138 -60 63 -206 88 -327 56z m164 -55 c38 -18 59 -72 54 -136 -9 -102 -68
-145 -207 -151 l-84 -4 7 73 c15 169 120 268 230 218z"/>
<path d="M4753 5995 c-43 -18 -69 -71 -56 -111 13 -40 37 -52 61 -31 40 37 60
19 145 -129 26 -44 47 -86 47 -93 0 -7 -35 -63 -77 -124 -58 -82 -90 -118
-126 -140 -53 -34 -55 -54 -9 -96 20 -18 33 -22 61 -17 43 7 56 22 141 165 36
61 67 111 70 111 3 0 21 -30 40 -67 89 -169 132 -213 206 -213 44 0 95 31 110
66 15 37 11 58 -19 91 -20 23 -20 23 -34 3 -19 -26 -45 -25 -70 3 -27 30 -133
213 -133 229 1 28 165 233 202 253 42 22 45 32 23 75 -10 20 -25 31 -48 35
-60 11 -79 -5 -158 -134 -41 -67 -77 -121 -81 -121 -4 0 -22 28 -39 63 -93
184 -153 227 -256 182z"/>
<path d="M5500 5997 c-19 -10 -24 -20 -22 -42 1 -17 6 -147 10 -290 7 -243 9
-263 31 -307 38 -79 110 -114 212 -105 76 7 138 43 177 103 l31 46 6 -35 c11
-58 40 -95 83 -107 89 -23 163 33 136 104 -4 10 -14 13 -33 10 -17 -4 -32 0
-39 8 -7 10 -12 103 -14 297 l-3 283 -28 24 c-32 28 -63 30 -113 9 -28 -12
-35 -19 -29 -32 4 -10 12 -74 17 -142 25 -300 -39 -492 -165 -491 -99 1 -110
37 -117 372 -6 299 -5 296 -76 304 -22 3 -50 -1 -64 -9z"/>
<path d="M6411 5991 c-101 -35 -141 -85 -141 -179 0 -108 49 -161 234 -252 70
-34 134 -72 145 -87 27 -34 28 -96 2 -122 -27 -27 -97 -44 -149 -37 -93 13
-142 64 -142 149 0 45 -1 47 -29 47 -17 0 -42 -10 -58 -24 -23 -20 -28 -32
-28 -69 0 -112 129 -180 309 -163 101 9 158 31 205 78 75 74 79 173 12 250
-29 32 -72 60 -175 112 -80 40 -147 81 -161 98 -26 31 -33 84 -15 118 20 38
121 52 186 25 36 -15 64 -62 64 -109 0 -13 6 -26 14 -29 25 -10 69 8 90 36 19
26 19 30 6 69 -18 51 -60 82 -131 97 -75 16 -177 13 -238 -8z"/>
<path d="M7650 5997 c-34 -17 -55 -57 -47 -90 6 -23 11 -25 42 -20 19 3 36 4
37 2 1 -2 4 -135 7 -295 6 -268 8 -294 25 -313 26 -29 75 -36 120 -17 31 13
37 19 30 33 -5 10 -10 107 -12 216 -3 178 -1 205 17 266 48 157 188 204 245
82 19 -42 21 -66 24 -291 1 -135 5 -255 7 -267 6 -25 51 -53 85 -53 12 0 35 7
52 16 27 14 29 19 24 47 -4 18 -10 145 -15 282 -8 278 -15 310 -77 364 -106
94 -303 51 -366 -79 l-15 -32 -8 38 c-4 21 -13 51 -21 66 -26 51 -100 72 -154
45z"/>
<path d="M9330 5997 c-20 -10 -24 -19 -22 -42 2 -17 6 -172 10 -346 5 -242 10
-320 21 -332 20 -25 72 -31 116 -13 32 14 36 19 30 38 -4 13 -11 169 -14 346
l-6 324 -24 19 c-27 22 -75 24 -111 6z"/>
<path d="M9841 6000 c-113 -24 -171 -78 -171 -160 0 -88 66 -142 154 -126 46
9 53 22 27 50 -45 48 -34 143 19 171 38 19 103 19 141 -1 41 -21 68 -84 76
-178 l6 -76 -41 0 c-127 0 -311 -67 -371 -135 -58 -66 -64 -166 -14 -226 38
-45 78 -61 149 -61 104 1 183 47 250 146 l34 51 0 -40 c0 -50 30 -117 61 -139
14 -10 44 -16 75 -16 42 0 59 5 84 26 26 22 31 33 28 63 -3 36 -4 37 -49 24
-39 -11 -46 17 -52 224 -6 221 -18 277 -67 331 -46 50 -110 74 -210 78 -47 2
-105 -1 -129 -6z m249 -402 c0 -70 -76 -189 -142 -224 -31 -16 -81 -18 -107
-4 -45 24 -51 113 -12 169 35 48 132 85 234 90 24 1 27 -2 27 -31z"/>
<path d="M2019 4993 c0 -5 0 -39 1 -77 l1 -68 -23 16 c-54 38 -136 8 -164 -60
-19 -45 -18 -136 3 -178 30 -64 109 -72 157 -16 l24 29 11 -29 c8 -24 16 -30
40 -30 24 0 31 4 31 20 0 13 -5 18 -15 14 -13 -5 -15 18 -15 174 0 99 -3 187
-6 196 -6 16 -43 23 -45 9z m-25 -159 c22 -22 30 -58 22 -110 -11 -85 -52
-132 -102 -120 -32 8 -44 42 -44 119 0 84 25 127 74 127 19 0 42 -7 50 -16z"/>
<path d="M4030 4800 l0 -200 24 -15 c19 -13 29 -14 45 -5 27 14 28 40 1 33
-28 -8 -33 23 -29 217 l4 170 -22 0 -23 0 0 -200z"/>
<path d="M5940 4791 c0 -165 3 -210 13 -214 26 -10 32 9 32 108 1 107 9 134
50 161 29 19 60 11 77 -19 6 -12 14 -71 16 -132 4 -114 9 -129 33 -120 11 4
13 27 11 113 -1 59 -5 117 -8 130 -14 65 -97 84 -155 35 l-32 -28 6 88 6 87
-24 0 -25 0 0 -209z"/>
<path d="M1120 4984 c-13 -4 -15 -32 -12 -192 2 -103 5 -193 7 -199 5 -16 104
-17 157 -3 48 14 78 52 78 100 0 40 -28 85 -59 95 -17 5 -16 8 10 35 31 30 39
83 19 119 -19 37 -134 62 -200 45z m140 -39 c13 -12 20 -31 20 -57 0 -54 -35
-88 -90 -88 l-40 0 0 86 0 87 45 -6 c25 -2 55 -13 65 -22z m-1 -180 c16 -8 31
-22 35 -30 9 -25 7 -74 -4 -95 -12 -22 -60 -40 -106 -40 l-34 0 0 90 0 90 40
0 c23 0 54 -7 69 -15z"/>
<path d="M1694 4975 c-8 -21 2 -45 19 -45 8 0 20 7 27 15 10 12 10 18 0 30 -7
8 -19 15 -27 15 -7 0 -16 -7 -19 -15z"/>
<path d="M2484 4975 c-8 -21 2 -45 19 -45 8 0 20 7 27 15 10 12 10 18 0 30 -7
8 -19 15 -27 15 -7 0 -16 -7 -19 -15z"/>
<path d="M5594 4975 c-8 -21 2 -45 19 -45 8 0 20 7 27 15 10 12 10 18 0 30 -7
8 -19 15 -27 15 -7 0 -16 -7 -19 -15z"/>
<path d="M6474 4981 c-32 -14 -72 -68 -85 -114 -16 -59 -7 -177 17 -217 31
-54 68 -75 130 -74 102 1 148 64 149 204 0 95 -19 149 -67 183 -29 22 -111 32
-144 18z m104 -27 c42 -29 56 -72 56 -174 0 -98 -12 -139 -49 -170 -26 -22
-81 -17 -109 9 -68 64 -56 304 17 339 32 15 59 14 85 -4z"/>
<path d="M8854 4976 c-10 -26 4 -48 28 -44 17 2 23 10 23 28 0 18 -6 26 -23
28 -13 2 -25 -3 -28 -12z"/>
<path d="M9204 4976 c-10 -26 4 -48 28 -44 17 2 23 10 23 28 0 18 -6 26 -23
28 -13 2 -25 -3 -28 -12z"/>
<path d="M3370 4960 c0 -19 4 -20 38 -14 83 17 76 32 82 -181 5 -189 6 -193
38 -187 4 1 6 88 4 193 l-3 191 43 -7 c66 -12 72 -11 76 8 3 16 -9 17 -137 17
-135 0 -141 -1 -141 -20z"/>
<path d="M4827 4944 c-4 -4 -7 -22 -7 -41 0 -26 -4 -33 -20 -33 -11 0 -20 -4
-20 -10 0 -5 9 -10 20 -10 19 0 20 -7 20 -111 0 -61 5 -119 10 -129 16 -30 45
-42 74 -30 35 13 34 36 -1 35 l-28 0 -3 118 -3 117 36 0 c22 0 35 5 35 13 0 9
-11 12 -36 9 l-36 -4 4 38 c2 33 0 39 -17 42 -12 2 -24 0 -28 -4z"/>
<path d="M5757 4943 c-4 -3 -7 -21 -7 -40 0 -26 -4 -33 -20 -33 -11 0 -20 -4
-20 -10 0 -5 9 -10 20 -10 19 0 20 -7 20 -114 0 -63 3 -122 6 -131 10 -24 49
-36 80 -25 31 12 27 34 -7 35 -24 0 -24 1 -27 118 l-3 117 36 0 c24 0 35 5 35
14 0 11 -9 13 -35 9 l-35 -6 0 42 c0 33 -4 41 -18 41 -10 0 -22 -3 -25 -7z"/>
<path d="M8007 4944 c-4 -4 -7 -22 -7 -41 0 -26 -4 -33 -20 -33 -11 0 -20 -4
-20 -10 0 -5 9 -10 20 -10 19 0 20 -7 20 -111 0 -61 5 -119 10 -129 16 -30 45
-42 74 -30 35 13 34 36 -1 35 l-28 0 -3 118 -3 117 36 0 c22 0 35 5 35 13 0 9
-11 12 -36 9 l-36 -4 4 38 c2 33 0 39 -17 42 -12 2 -24 0 -28 -4z"/>
<path d="M9017 4944 c-4 -4 -7 -22 -7 -41 0 -26 -4 -33 -20 -33 -11 0 -20 -4
-20 -10 0 -5 9 -10 20 -10 19 0 20 -7 20 -111 0 -61 5 -119 10 -129 16 -30 45
-42 74 -30 35 13 34 36 -1 35 l-28 0 -3 118 -3 117 36 0 c22 0 35 5 35 13 0 9
-11 12 -36 9 l-36 -4 4 38 c2 33 0 39 -17 42 -12 2 -24 0 -28 -4z"/>
<path d="M1407 4873 c-14 -13 -7 -34 11 -31 15 3 17 -10 20 -129 3 -132 3
-133 26 -133 23 0 23 2 22 88 0 48 3 104 7 125 15 73 95 87 85 15 -4 -25 -2
-29 16 -26 27 4 34 58 11 82 -25 25 -80 21 -103 -9 l-19 -24 -11 24 c-11 24
-49 35 -65 18z"/>
<path d="M1693 4843 c4 -21 7 -88 7 -149 0 -84 3 -113 13 -117 28 -11 32 11
27 153 -5 144 -5 145 -29 148 -23 4 -24 2 -18 -35z"/>
<path d="M2210 4867 c-75 -37 -83 -238 -11 -277 32 -17 86 -12 115 11 l26 20
0 -41 c0 -54 -24 -98 -58 -107 -64 -16 -97 4 -87 54 4 24 2 33 -8 33 -38 0
-49 -58 -17 -90 29 -29 127 -28 165 2 46 36 55 73 55 233 l0 146 -35 15 c-42
17 -111 18 -145 1z m122 -19 c14 -11 16 -27 11 -103 -6 -82 -9 -92 -35 -118
-23 -23 -34 -28 -56 -22 -38 9 -44 18 -52 70 -10 66 5 146 31 168 25 20 78 22
101 5z"/>
<path d="M2483 4843 c4 -21 7 -88 7 -149 0 -84 3 -113 13 -117 28 -11 32 11
27 153 -5 144 -5 145 -29 148 -23 4 -24 2 -18 -35z"/>
<path d="M2607 4873 c-13 -13 -7 -31 13 -36 19 -5 20 -14 20 -130 0 -95 3
-126 13 -130 26 -10 32 9 32 110 0 120 17 156 76 161 51 5 59 -14 59 -138 0
-110 11 -147 41 -135 15 6 15 11 6 197 -3 44 -9 64 -27 83 -32 34 -88 34 -128
0 l-29 -24 -11 24 c-11 24 -49 35 -65 18z"/>
<path d="M2990 4852 c-59 -59 -64 -190 -10 -244 38 -38 100 -39 135 -3 l25 24
0 -40 c0 -56 -26 -108 -59 -116 -60 -15 -95 4 -89 49 3 16 1 31 -4 34 -16 10
-38 -18 -38 -47 0 -40 32 -59 101 -59 112 0 139 52 139 268 l0 130 -34 16
c-19 9 -57 16 -86 16 -43 0 -56 -5 -80 -28z m134 2 c25 -10 23 -168 -3 -210
-21 -35 -61 -50 -91 -34 -44 24 -50 172 -9 224 20 26 65 34 103 20z"/>
<path d="M3740 4867 c-13 -7 -29 -25 -34 -40 -8 -23 -6 -31 11 -49 14 -13 28
-18 39 -14 13 5 15 9 6 18 -15 15 -15 51 0 66 16 16 70 15 92 -1 11 -8 20 -31
23 -58 l5 -45 -43 -3 c-55 -3 -124 -33 -138 -59 -52 -98 85 -149 157 -58 22
28 25 27 36 -16 6 -27 20 -33 56 -28 27 4 29 35 2 35 -15 0 -18 14 -23 100 -3
55 -9 108 -13 118 -19 42 -121 62 -176 34z m140 -163 c0 -37 -59 -94 -98 -94
-30 0 -42 14 -42 49 0 24 32 52 72 61 59 14 68 12 68 -16z"/>
<path d="M4228 4864 c-42 -22 -62 -69 -62 -142 1 -72 19 -106 75 -135 60 -32
159 -3 159 46 -1 19 -2 20 -11 5 -5 -10 -25 -21 -43 -26 -64 -18 -108 5 -125
65 l-9 30 67 5 c73 5 104 20 120 55 17 37 13 52 -18 84 -25 24 -37 29 -78 29
-26 -1 -60 -7 -75 -16z m114 -21 c23 -21 23 -55 0 -83 -21 -25 -114 -41 -126
-21 -11 18 13 89 37 106 28 20 66 19 89 -2z"/>
<path d="M4457 4873 c-13 -13 -7 -31 13 -36 19 -5 20 -14 20 -130 0 -95 3
-126 13 -130 26 -10 32 9 32 110 0 120 17 156 76 161 51 5 59 -14 59 -138 0
-110 11 -147 41 -135 15 6 15 11 6 197 -3 44 -9 64 -27 83 -32 34 -88 34 -128
0 l-29 -24 -11 24 c-11 24 -49 35 -65 18z"/>
<path d="M5107 4874 c-3 -3 -2 -16 3 -27 5 -12 26 -75 45 -139 20 -64 43 -122
50 -128 30 -25 49 5 80 124 16 64 32 110 36 104 4 -7 19 -58 33 -113 46 -172
71 -167 134 25 44 130 47 164 16 158 -11 -2 -23 -29 -39 -88 -40 -154 -48
-176 -53 -160 -3 8 -20 67 -37 130 -28 106 -32 115 -55 118 -24 3 -26 -2 -54
-115 -33 -135 -41 -156 -49 -127 -3 10 -18 64 -33 119 -15 55 -32 106 -37 113
-10 13 -30 16 -40 6z"/>
<path d="M5593 4843 c4 -21 7 -88 7 -149 0 -84 3 -113 13 -117 28 -11 32 11
27 153 -5 144 -5 145 -29 148 -23 4 -24 2 -18 -35z"/>
<path d="M6747 4874 c-13 -14 -7 -32 13 -37 18 -5 20 -15 22 -194 3 -180 4
-188 23 -188 18 0 19 6 16 80 -3 79 -3 80 17 62 50 -46 139 -21 168 48 30 73
11 200 -34 224 -36 19 -87 13 -116 -14 -14 -13 -26 -30 -26 -37 0 -7 -8 3 -18
22 -16 33 -49 50 -65 34z m207 -46 c19 -27 22 -129 5 -177 -18 -51 -79 -69
-112 -33 -38 41 -29 162 16 210 27 29 71 29 91 0z"/>
<path d="M7072 4868 c-18 -18 -15 -28 8 -28 19 0 20 -8 22 -192 3 -185 4 -193
23 -193 18 0 20 8 23 72 l3 72 34 -16 c48 -23 106 -5 134 40 41 66 36 192 -10
238 -13 13 -33 19 -60 19 -35 0 -47 -6 -75 -36 -32 -34 -34 -34 -34 -12 0 28
-17 48 -40 48 -9 0 -21 -5 -28 -12z m214 -53 c39 -94 -2 -215 -73 -215 -42 0
-63 33 -63 99 0 100 30 151 87 151 29 0 36 -5 49 -35z"/>
<path d="M7471 4867 c-85 -44 -94 -220 -13 -273 63 -41 158 -15 192 52 19 39
17 131 -4 171 -29 56 -115 81 -175 50z m113 -30 c55 -55 39 -211 -23 -237 -62
-25 -111 30 -111 124 0 114 72 175 134 113z"/>
<path d="M7717 4873 c-13 -13 -7 -31 13 -36 19 -5 20 -14 20 -131 0 -125 0
-126 23 -126 22 0 23 3 19 70 -6 96 5 155 33 188 20 22 27 25 42 16 12 -8 17
-23 17 -43 -2 -32 13 -40 34 -19 18 18 15 53 -6 71 -25 23 -75 21 -97 -3 -10
-11 -21 -20 -25 -20 -4 0 -10 9 -13 20 -5 20 -45 28 -60 13z"/>
<path d="M8189 4873 c-4 -62 5 -234 14 -253 26 -55 102 -62 150 -14 l25 24 6
-24 c7 -26 35 -38 60 -24 22 12 20 25 -4 31 -18 5 -20 15 -22 133 -3 125 -4
129 -25 132 -23 3 -23 2 -23 -103 0 -140 -17 -175 -85 -175 -36 0 -45 28 -45
144 0 57 -3 111 -6 120 -6 16 -43 23 -45 9z"/>
<path d="M8497 4873 c-13 -13 -7 -31 13 -36 19 -5 20 -14 20 -130 0 -95 3
-126 13 -130 26 -10 32 9 32 110 0 120 17 156 76 161 51 5 59 -14 59 -138 0
-110 11 -147 41 -135 15 6 15 11 6 197 -3 44 -9 64 -27 83 -32 34 -88 34 -128
0 l-29 -24 -11 24 c-11 24 -49 35 -65 18z"/>
<path d="M8860 4736 c0 -113 3 -146 15 -156 29 -24 35 0 35 135 0 147 -3 165
-31 165 -18 0 -19 -9 -19 -144z"/>
<path d="M9208 4873 c-2 -5 -2 -72 0 -150 2 -104 6 -143 16 -146 27 -11 31 12
28 156 -4 135 -5 147 -22 147 -11 0 -20 -3 -22 -7z"/>
<path d="M9394 4861 c-57 -35 -79 -132 -48 -210 17 -42 42 -64 87 -75 59 -14
137 20 137 61 0 13 -5 12 -25 -7 -52 -49 -143 -20 -160 51 -7 26 -6 27 59 31
86 5 120 29 124 85 3 34 -1 44 -24 62 -35 27 -107 28 -150 2z m122 -29 c28
-56 -18 -102 -101 -102 -29 0 -35 4 -35 20 0 32 26 87 47 99 29 18 76 9 89
-17z"/>
<path d="M9675 4868 c-28 -16 -35 -28 -35 -64 0 -38 29 -70 89 -96 77 -33 101
-69 66 -98 -40 -33 -135 -4 -135 42 0 10 -7 18 -15 18 -23 0 -19 -53 6 -76 30
-27 128 -26 166 2 33 25 43 77 19 103 -9 10 -45 32 -81 50 -46 24 -67 40 -71
57 -9 34 12 54 55 54 41 0 61 -14 61 -43 0 -26 34 -18 38 10 5 31 -33 53 -93
53 -27 0 -59 -6 -70 -12z"/>
</g>
</svg>
